<svg width="27" height="27" viewBox="0 0 27 27" fill="none" xmlns="http://www.w3.org/2000/svg">
<path d="M13 5.62651C15.3855 5.62651 15.7108 5.62651 16.6867 5.62651C17.5542 5.62651 17.988 5.84337 18.3133 5.95181C18.747 6.16868 19.0723 6.27711 19.3976 6.60241C19.7229 6.92771 19.9398 7.25301 20.0482 7.68675C20.1566 8.01205 20.2651 8.44578 20.3735 9.31325C20.3735 10.2892 20.3735 10.506 20.3735 13C20.3735 15.494 20.3735 15.7108 20.3735 16.6867C20.3735 17.5542 20.1566 17.988 20.0482 18.3133C19.8313 18.747 19.7229 19.0723 19.3976 19.3976C19.0723 19.7229 18.747 19.9398 18.3133 20.0482C17.988 20.1566 17.5542 20.2651 16.6867 20.3735C15.7108 20.3735 15.494 20.3735 13 20.3735C10.506 20.3735 10.2892 20.3735 9.31325 20.3735C8.44578 20.3735 8.01205 20.1566 7.68675 20.0482C7.25301 19.8313 6.92771 19.7229 6.60241 19.3976C6.27711 19.0723 6.06024 18.747 5.95181 18.3133C5.84337 17.988 5.73494 17.5542 5.62651 16.6867C5.62651 15.7108 5.62651 15.494 5.62651 13C5.62651 10.506 5.62651 10.2892 5.62651 9.31325C5.62651 8.44578 5.84337 8.01205 5.95181 7.68675C6.16868 7.25301 6.27711 6.92771 6.60241 6.60241C6.92771 6.27711 7.25301 6.06024 7.68675 5.95181C8.01205 5.84337 8.44578 5.73494 9.31325 5.62651C10.2892 5.62651 10.6145 5.62651 13 5.62651ZM13 4C10.506 4 10.2892 4 9.31325 4C8.33735 4 7.68675 4.21687 7.14458 4.43374C6.60241 4.6506 6.06024 4.9759 5.51807 5.51807C4.9759 6.06024 4.75904 6.49398 4.43374 7.14458C4.21687 7.68675 4.10843 8.33735 4 9.31325C4 10.2892 4 10.6145 4 13C4 15.494 4 15.7108 4 16.6867C4 17.6627 4.21687 18.3133 4.43374 18.8554C4.6506 19.3976 4.9759 19.9398 5.51807 20.4819C6.06024 21.0241 6.49398 21.241 7.14458 21.5663C7.68675 21.7831 8.33735 21.8916 9.31325 22C10.2892 22 10.6145 22 13 22C15.3855 22 15.7108 22 16.6867 22C17.6627 22 18.3133 21.7831 18.8554 21.5663C19.3976 21.3494 19.9398 21.0241 20.4819 20.4819C21.0241 19.9398 21.241 19.506 21.5663 18.8554C21.7831 18.3133 21.8916 17.6627 22 16.6867C22 15.7108 22 15.3855 22 13C22 10.6145 22 10.2892 22 9.31325C22 8.33735 21.7831 7.68675 21.5663 7.14458C21.3494 6.60241 21.0241 6.06024 20.4819 5.51807C19.9398 4.9759 19.506 4.75904 18.8554 4.43374C18.3133 4.21687 17.6627 4.10843 16.6867 4C15.7108 4 15.494 4 13 4Z" fill="white"/>
<path d="M13 8.33735C10.3976 8.33735 8.33735 10.3976 8.33735 13C8.33735 15.6024 10.3976 17.6627 13 17.6627C15.6024 17.6627 17.6627 15.6024 17.6627 13C17.6627 10.3976 15.6024 8.33735 13 8.33735ZM13 16.0361C11.3735 16.0361 9.96386 14.7349 9.96386 13C9.96386 11.3735 11.2651 9.96386 13 9.96386C14.6265 9.96386 16.0361 11.2651 16.0361 13C16.0361 14.6265 14.6265 16.0361 13 16.0361Z" fill="white"/>
<path d="M17.7711 9.31325C18.3699 9.31325 18.8554 8.82778 18.8554 8.22892C18.8554 7.63005 18.3699 7.14458 17.7711 7.14458C17.1722 7.14458 16.6867 7.63005 16.6867 8.22892C16.6867 8.82778 17.1722 9.31325 17.7711 9.31325Z" fill="white"/>
</svg>
