<svg width="19" height="19" viewBox="0 0 19 19" fill="none" xmlns="http://www.w3.org/2000/svg">
<g clip-path="url(#clip0_370_496)">
<path d="M17.2829 0.0769196H1.94426C1.2095 0.0769196 0.615356 0.656998 0.615356 1.37419V16.7761C0.615356 17.4933 1.2095 18.0769 1.94426 18.0769H17.2829C18.0177 18.0769 18.6154 17.4933 18.6154 16.7797V1.37419C18.6154 0.656998 18.0177 0.0769196 17.2829 0.0769196ZM5.95559 15.4156H3.28372V6.8234H5.95559V15.4156ZM4.61965 5.6527C3.76184 5.6527 3.06926 4.96012 3.06926 4.10583C3.06926 3.25153 3.76184 2.55895 4.61965 2.55895C5.47395 2.55895 6.16653 3.25153 6.16653 4.10583C6.16653 4.95661 5.47395 5.6527 4.61965 5.6527ZM15.954 15.4156H13.2857V11.239C13.2857 10.2441 13.2681 8.9609 11.897 8.9609C10.5083 8.9609 10.2974 10.0472 10.2974 11.1687V15.4156H7.63254V6.8234H10.1919V7.99762H10.2271C10.5822 7.32262 11.454 6.60895 12.7513 6.60895C15.4548 6.60895 15.954 8.38786 15.954 10.7011V15.4156Z" fill="white"/>
</g>
<defs>
<clipPath id="clip0_370_496">
<rect width="18" height="18" fill="white" transform="translate(0.615356 0.0769196)"/>
</clipPath>
</defs>
</svg>
