<svg width="27" height="27" viewBox="0 0 27 27" fill="none" xmlns="http://www.w3.org/2000/svg">
<path fill-rule="evenodd" clip-rule="evenodd" d="M4.92261 6.01355C4.92261 6.02097 6.279 7.74021 7.93682 9.83403C9.59461 11.9279 10.9441 13.657 10.9357 13.6766C10.9273 13.6961 9.65911 15.1039 8.11756 16.805C6.57603 18.5061 5.29538 19.9208 5.27172 19.9489C5.23147 19.9967 5.30883 20 6.45575 20H7.68286L9.88706 17.5626C11.0994 16.2221 12.0988 15.1243 12.108 15.1232C12.1172 15.1221 12.9925 16.2185 14.0531 17.5597L15.9814 19.9982L18.452 19.9991C19.8109 19.9996 20.9226 19.9937 20.9226 19.986C20.9226 19.9783 19.5045 18.1612 17.7713 15.9481L14.62 11.9242L14.708 11.8333C14.7565 11.7833 15.9366 10.4811 17.3306 8.93939C18.7246 7.39773 19.8938 6.1057 19.9288 6.06818L19.9924 6L18.7555 6.00197L17.5187 6.00394L15.5108 8.22794C14.4065 9.45115 13.4958 10.4525 13.4871 10.4532C13.4783 10.454 12.6878 9.45276 11.7302 8.22836L9.98927 6.00218L7.45594 6.00109C6.06259 6.00048 4.92261 6.00609 4.92261 6.01355ZM7.79947 7.37306C7.81327 7.39491 9.81396 9.92445 12.2455 12.9943L16.6664 18.5758H17.3383C17.7372 18.5758 18.0059 18.5644 17.9997 18.5477C17.994 18.5322 16.0199 16.0033 13.6128 12.9277L9.23633 7.33582L8.50535 7.33458C7.9104 7.33358 7.77905 7.34073 7.79947 7.37306Z" fill="white"/>
</svg>
