<svg width="20" height="19" viewBox="0 0 20 19" fill="none" xmlns="http://www.w3.org/2000/svg">
<path d="M9.40518 6.75102L12.1034 2.12552C13.2726 2.43389 14.3103 2.99922 15.2164 3.82154C16.1224 4.64385 16.7808 5.62034 17.1914 6.75102H9.40518ZM7.26589 8.67831L4.6255 4.05281C5.31933 3.37183 6.1257 2.83219 7.04464 2.43389C7.96357 2.03558 8.956 1.83643 10.0219 1.83643C10.1889 1.83643 10.3817 1.84619 10.6001 1.86572C10.8185 1.88525 11.0177 1.90761 11.1976 1.93279L7.26589 8.67831ZM2.5633 11.4729C2.48621 11.1645 2.42505 10.8497 2.37982 10.5285C2.3346 10.2073 2.31224 9.87965 2.31275 9.54559C2.31275 8.63334 2.46051 7.77248 2.75603 6.96302C3.05155 6.15356 3.46913 5.41476 4.00877 4.74663L7.9019 11.4729H2.5633ZM7.95971 16.9657C6.79049 16.6573 5.74975 16.092 4.8375 15.2696C3.92525 14.4473 3.26355 13.4708 2.85239 12.3402H10.6194L7.95971 16.9657ZM10.0219 17.2548C9.82919 17.2548 9.63312 17.2419 9.43371 17.2162C9.2343 17.1905 9.04491 17.1648 8.86554 17.1391L12.7779 10.4129L15.4183 15.0384C14.7245 15.7193 13.9181 16.259 12.9992 16.6573C12.0803 17.0556 11.0878 17.2548 10.0219 17.2548ZM16.0351 14.3445L12.1419 7.6183H17.4805C17.5576 7.92666 17.6188 8.24146 17.664 8.56267C17.7092 8.88389 17.7316 9.21153 17.7311 9.54559C17.7311 10.445 17.5736 11.3058 17.2585 12.1282C16.9435 12.9505 16.5356 13.6893 16.0351 14.3445Z" fill="white"/>
</svg>
