<svg width="12" height="11" viewBox="0 0 12 11" fill="none" xmlns="http://www.w3.org/2000/svg">
<path d="M7.82194 1.58398C6.97486 1.58398 6.25104 2.18777 5.85336 2.60404C5.45569 2.18777 4.73348 1.58398 3.8868 1.58398C2.42744 1.58398 1.4086 2.60121 1.4086 4.05734C1.4086 5.66179 2.67397 6.69882 3.89812 7.7019C4.47604 8.17596 5.07418 8.66578 5.53288 9.20895C5.61007 9.29988 5.72323 9.35242 5.84205 9.35242H5.86549C5.98471 9.35242 6.09747 9.29948 6.17425 9.20895C6.63376 8.66578 7.23149 8.17555 7.80982 7.7019C9.03356 6.69922 10.2997 5.66219 10.2997 4.05734C10.2997 2.60121 9.2809 1.58398 7.82194 1.58398Z" fill="#E34848"/>
</svg>
