<svg width="19" height="19" viewBox="0 0 19 19" fill="none" xmlns="http://www.w3.org/2000/svg">
<g opacity="0.5">
<path d="M9.64267 3.58936C10.439 3.58936 11.2027 3.9057 11.7658 4.4688C12.3289 5.0319 12.6453 5.79562 12.6453 6.59196C12.6453 7.3883 12.3289 8.15203 11.7658 8.71513C11.2027 9.27823 10.439 9.59457 9.64267 9.59457C8.84633 9.59457 8.0826 9.27823 7.5195 8.71513C6.9564 8.15203 6.64006 7.3883 6.64006 6.59196C6.64006 5.79562 6.9564 5.0319 7.5195 4.4688C8.0826 3.9057 8.84633 3.58936 9.64267 3.58936ZM9.64267 11.0959C12.9605 11.0959 15.6479 12.4395 15.6479 14.0985V15.5998H3.63745V14.0985C3.63745 12.4395 6.32478 11.0959 9.64267 11.0959Z" fill="white"/>
</g>
</svg>
