<svg width="33" height="32" viewBox="0 0 33 32" fill="none" xmlns="http://www.w3.org/2000/svg">
<rect x="0.5" width="32" height="32" rx="4" fill="url(#paint0_linear_392_1013)"/>
<path d="M17.3333 10.1667C17.3333 9.70647 16.9602 9.33337 16.5 9.33337C16.0398 9.33337 15.6667 9.70647 15.6667 10.1667V15.1667H10.6667C10.2064 15.1667 9.83334 15.5398 9.83334 16C9.83334 16.4603 10.2064 16.8334 10.6667 16.8334H15.6667V21.8334C15.6667 22.2936 16.0398 22.6667 16.5 22.6667C16.9602 22.6667 17.3333 22.2936 17.3333 21.8334V16.8334H22.3333C22.7936 16.8334 23.1667 16.4603 23.1667 16C23.1667 15.5398 22.7936 15.1667 22.3333 15.1667H17.3333V10.1667Z" fill="white"/>
<defs>
<linearGradient id="paint0_linear_392_1013" x1="0.5" y1="15.7922" x2="32.504" y2="15.8741" gradientUnits="userSpaceOnUse">
<stop stop-color="#5BB3EB"/>
<stop offset="1" stop-color="#D467E2"/>
</linearGradient>
</defs>
</svg>
