<svg width="25" height="24" viewBox="0 0 25 24" fill="none" xmlns="http://www.w3.org/2000/svg">
<path d="M12.5 11.9999V20.9999M12.5 11.9999L9.99999 13.9999M12.5 11.9999L15 13.9999M5.53399 9.11694C4.5882 9.35494 3.76187 9.9301 3.21025 10.7344C2.65862 11.5387 2.41967 12.5167 2.5383 13.4847C2.65692 14.4528 3.12495 15.3442 3.85446 15.9914C4.58396 16.6387 5.52472 16.9974 6.49999 16.9999H7.49999" stroke="#DCE0E6" stroke-width="2" stroke-linecap="round" stroke-linejoin="round"/>
<path d="M16.33 7.13796C15.9882 5.78453 15.1446 4.6117 13.9701 3.85722C12.7956 3.10274 11.3783 2.82305 10.0052 3.07487C8.63221 3.32668 7.40631 4.09115 6.57604 5.2133C5.74576 6.33545 5.37324 7.73133 5.53398 9.11796C5.53398 9.11796 5.68698 9.99996 5.99998 10.5" stroke="#DCE0E6" stroke-width="2" stroke-linecap="round" stroke-linejoin="round"/>
<path d="M17.5 17C18.206 16.9995 18.904 16.8495 19.5479 16.5599C20.1917 16.2702 20.767 15.8475 21.2357 15.3195C21.7045 14.7915 22.0561 14.1702 22.2674 13.4965C22.4787 12.8229 22.545 12.1121 22.4618 11.4109C22.3786 10.7098 22.1479 10.0343 21.7848 9.42874C21.4217 8.82321 20.9345 8.30145 20.3552 7.89778C19.776 7.49412 19.1178 7.21772 18.424 7.08676C17.7302 6.9558 17.0166 6.97327 16.33 7.138L15 7.5" stroke="#DCE0E6" stroke-width="2" stroke-linecap="round" stroke-linejoin="round"/>
</svg>
