<svg width="39" height="39" viewBox="0 0 39 39" fill="none" xmlns="http://www.w3.org/2000/svg">
<path d="M19.7815 8.9922C23.2512 8.9922 23.7243 8.9922 25.1438 8.9922C26.4055 8.9922 27.0364 9.30763 27.5095 9.46535C28.1404 9.78078 28.6135 9.9385 29.0867 10.4116C29.5598 10.8848 29.8753 11.3579 30.033 11.9888C30.1907 12.462 30.3484 13.0928 30.5061 14.3545C30.5061 15.774 30.5061 16.0894 30.5061 19.7169C30.5061 23.3443 30.5061 23.6598 30.5061 25.0792C30.5061 26.3409 30.1907 26.9718 30.033 27.445C29.7175 28.0758 29.5598 28.549 29.0867 29.0221C28.6135 29.4953 28.1404 29.8107 27.5095 29.9684C27.0364 30.1261 26.4055 30.2838 25.1438 30.4415C23.7243 30.4415 23.4089 30.4415 19.7815 30.4415C16.154 30.4415 15.8386 30.4415 14.4191 30.4415C13.1574 30.4415 12.5265 30.1261 12.0534 29.9684C11.4225 29.653 10.9494 29.4953 10.4762 29.0221C10.0031 28.549 9.68764 28.0758 9.52992 27.445C9.37221 26.9718 9.21449 26.3409 9.05678 25.0792C9.05678 23.6598 9.05678 23.3443 9.05678 19.7169C9.05678 16.0894 9.05678 15.774 9.05678 14.3545C9.05678 13.0928 9.37221 12.462 9.52992 11.9888C9.84536 11.3579 10.0031 10.8848 10.4762 10.4116C10.9494 9.9385 11.4225 9.62307 12.0534 9.46535C12.5265 9.30763 13.1574 9.14992 14.4191 8.9922C15.8386 8.9922 16.3117 8.9922 19.7815 8.9922ZM19.7815 6.62646C16.154 6.62646 15.8386 6.62646 14.4191 6.62646C12.9997 6.62646 12.0534 6.9419 11.2648 7.25733C10.4762 7.57276 9.68764 8.04591 8.89906 8.83449C8.11048 9.62307 7.79505 10.2539 7.3219 11.2002C7.00647 11.9888 6.84876 12.9351 6.69104 14.3545C6.69104 15.774 6.69104 16.2471 6.69104 19.7169C6.69104 23.3443 6.69104 23.6598 6.69104 25.0792C6.69104 26.4987 7.00647 27.445 7.3219 28.2335C7.63734 29.0221 8.11048 29.8107 8.89906 30.5993C9.68764 31.3878 10.3185 31.7033 11.2648 32.1764C12.0534 32.4919 12.9997 32.6496 14.4191 32.8073C15.8386 32.8073 16.3117 32.8073 19.7815 32.8073C23.2512 32.8073 23.7243 32.8073 25.1438 32.8073C26.5632 32.8073 27.5095 32.4919 28.2981 32.1764C29.0867 31.861 29.8753 31.3878 30.6638 30.5993C31.4524 29.8107 31.7679 29.1798 32.241 28.2335C32.5564 27.445 32.7141 26.4987 32.8719 25.0792C32.8719 23.6598 32.8719 23.1866 32.8719 19.7169C32.8719 16.2471 32.8719 15.774 32.8719 14.3545C32.8719 12.9351 32.5564 11.9888 32.241 11.2002C31.9256 10.4116 31.4524 9.62307 30.6638 8.83449C29.8753 8.04591 29.2444 7.73048 28.2981 7.25733C27.5095 6.9419 26.5632 6.78418 25.1438 6.62646C23.7243 6.62646 23.4089 6.62646 19.7815 6.62646Z" fill="white"/>
<path d="M19.7815 12.9351C15.9963 12.9351 12.9997 15.9317 12.9997 19.7169C12.9997 23.5021 15.9963 26.4987 19.7815 26.4987C23.5666 26.4987 26.5632 23.5021 26.5632 19.7169C26.5632 15.9317 23.5666 12.9351 19.7815 12.9351ZM19.7815 24.1329C17.4157 24.1329 15.3654 22.2403 15.3654 19.7169C15.3654 17.3511 17.258 15.3008 19.7815 15.3008C22.1472 15.3008 24.1975 17.1934 24.1975 19.7169C24.1975 22.0826 22.1472 24.1329 19.7815 24.1329Z" fill="white"/>
<path d="M26.7209 14.3545C27.592 14.3545 28.2981 13.6484 28.2981 12.7774C28.2981 11.9063 27.592 11.2002 26.7209 11.2002C25.8499 11.2002 25.1438 11.9063 25.1438 12.7774C25.1438 13.6484 25.8499 14.3545 26.7209 14.3545Z" fill="white"/>
</svg>
