<svg width="39" height="39" viewBox="0 0 39 39" fill="none" xmlns="http://www.w3.org/2000/svg">
<path fill-rule="evenodd" clip-rule="evenodd" d="M8.19847 9.34554C8.19847 9.35656 10.2115 11.9081 12.6719 15.0156C15.1323 18.1232 17.1351 20.6894 17.1226 20.7185C17.1101 20.7475 15.228 22.8368 12.9402 25.3614C10.6524 27.886 8.75171 29.9857 8.7166 30.0274C8.65686 30.0983 8.77168 30.1032 10.4739 30.1032H12.295L15.5664 26.4859C17.3656 24.4963 18.8488 22.8671 18.8624 22.8655C18.8761 22.8638 20.1752 24.4911 21.7492 26.4815L24.6112 30.1005L28.2778 30.1019C30.2945 30.1026 31.9445 30.0939 31.9445 30.0824C31.9445 30.071 29.8399 27.3743 27.2675 24.0897L22.5906 18.1178L22.7213 17.9828C22.7932 17.9086 24.5447 15.9759 26.6136 13.6879C28.6824 11.3998 30.4176 9.48231 30.4695 9.42663L30.5639 9.32544L28.7283 9.32836L26.8927 9.33129L23.9128 12.632C22.2738 14.4474 20.9222 15.9336 20.9093 15.9346C20.8963 15.9357 19.7229 14.4498 18.3018 12.6326L15.718 9.32868L11.9583 9.32706C9.89035 9.32616 8.19847 9.33448 8.19847 9.34554ZM12.4681 11.3632C12.4886 11.3957 15.4579 15.1498 19.0665 19.7058L25.6277 27.9895H26.6249C27.2169 27.9895 27.6158 27.9725 27.6066 27.9478C27.598 27.9249 24.6682 24.1716 21.0958 19.6071L14.6006 11.308L13.5157 11.3061C12.6327 11.3046 12.4378 11.3152 12.4681 11.3632Z" fill="white"/>
</svg>
