<svg width="267" height="53" viewBox="0 0 267 53" fill="none" xmlns="http://www.w3.org/2000/svg">
<path d="M18.1892 52.5676H1V1H18.1892" stroke="white" stroke-width="0.716216" stroke-miterlimit="10"/>
<path d="M248.811 1H254.3L266 15.4125V52.5676H248.811" stroke="white" stroke-width="0.716216" stroke-miterlimit="10"/>
<path opacity="0.35" d="M18.1892 1H248.811" stroke="white" stroke-width="0.716216" stroke-miterlimit="10"/>
<path opacity="0.35" d="M18.1892 52.5679H248.811" stroke="white" stroke-width="0.716216" stroke-miterlimit="10"/>
<path d="M23.1884 34.3242V19.0165H31.268L33.4281 21.1974V26.4523L31.268 28.6332H25.0784V34.3242H23.1884ZM25.0784 26.9508H30.4164L31.538 25.8084V21.8413L30.4164 20.6782L25.0784 20.6989V26.9508ZM36.6963 34.3242V19.0165H45.0668L47.2269 21.1974V26.0784L45.0668 28.2593H45.0044L47.7669 34.3242H45.6691L42.9482 28.2593H38.5864V34.3242H36.6963ZM38.5864 26.5769H44.2152L45.3368 25.4345V21.8413L44.2152 20.6989H38.5864V26.5769ZM53.3698 34.3242L51.189 32.1433V21.1974L53.3698 19.0165H60.5979L62.7788 21.1974V32.1433L60.5979 34.3242H53.3698ZM54.2214 32.6418H59.7463L60.8887 31.4995V21.8413L59.7463 20.6989H54.2214L53.079 21.8413V31.4995L54.2214 32.6418ZM67.9233 34.3242L65.7632 32.1433V28.6332H67.6533V31.4995L68.7957 32.6418H71.8904L73.0328 31.4995V19.0165H74.9229V32.1433L72.742 34.3242H67.9233ZM79.35 34.3242V19.0165H89.4444V20.7612H81.2401V25.4138H88.572V27.1377H81.2401V32.5795H89.4444V34.3242H79.35ZM94.9485 34.3242L92.7676 32.1433V21.1974L94.9485 19.0165H101.865L103.984 21.1351L102.779 22.3605L101.117 20.6989H95.8001L94.6577 21.8413V31.4995L95.8001 32.6418H101.283L102.966 30.9594L104.171 32.1849L102.01 34.3242H94.9485ZM110.453 34.3242V20.7612H105.904V19.0165H116.891V20.7612H112.343V34.3242H110.453ZM125.228 34.3242V19.0165H133.308L135.468 21.1974V26.4523L133.308 28.6332H127.118V34.3242H125.228ZM127.118 26.9508H132.456L133.578 25.8084V21.8413L132.456 20.6782L127.118 20.6989V26.9508ZM138.736 34.3242V19.0165H147.106L149.266 21.1974V26.0784L147.106 28.2593H147.044L149.807 34.3242H147.709L144.988 28.2593H140.626V34.3242H138.736ZM140.626 26.5769H146.255L147.376 25.4345V21.8413L146.255 20.6989H140.626V26.5769ZM155.409 34.3242L153.229 32.1433V21.1974L155.409 19.0165H162.638L164.818 21.1974V32.1433L162.638 34.3242H155.409ZM156.261 32.6418H161.786L162.928 31.4995V21.8413L161.786 20.6989H156.261L155.119 21.8413V31.4995L156.261 32.6418ZM170.62 34.3242L168.481 32.1433V21.1974L170.662 19.0165H177.931L180.05 21.1351L178.845 22.3605L177.184 20.6989H171.513L170.371 21.8413V31.4995L171.513 32.6418H176.104L178.471 30.4402V27.9477H174.941V26.2861H180.05V34.3242H178.471V32.5587L176.581 34.3242H170.62ZM184.473 34.3242V19.0165H192.843L195.003 21.1974V26.0784L192.843 28.2593H192.781L195.543 34.3242H193.446L190.725 28.2593H186.363V34.3242H184.473ZM186.363 26.5769H191.992L193.113 25.4345V21.8413L191.992 20.6989H186.363V26.5769ZM199.36 34.3242V19.0165H209.454V20.7612H201.25V25.4138H208.582V27.1377H201.25V32.5795H209.454V34.3242H199.36ZM212.848 34.3242V32.5795H220.388L221.509 31.4372V28.3839L220.388 27.2416H214.468L212.308 25.0814V21.1974L214.468 19.0165H222.61V20.7612H215.32L214.177 21.9036L214.198 24.4376L215.32 25.5799H221.239L223.399 27.7608V32.1433L221.239 34.3242H212.848ZM226.884 34.3242V32.5795H234.423L235.545 31.4372V28.3839L234.423 27.2416H228.504L226.344 25.0814V21.1974L228.504 19.0165H236.646V20.7612H229.355L228.213 21.9036L228.234 24.4376L229.355 25.5799H235.275L237.435 27.7608V32.1433L235.275 34.3242H226.884Z" fill="white"/>
</svg>
