<svg width="24" height="23" viewBox="0 0 24 23" fill="none" xmlns="http://www.w3.org/2000/svg">
<path d="M12 1.66016C10.0813 1.66016 8.2056 2.22913 6.61022 3.29513C5.01484 4.36113 3.77139 5.87627 3.03712 7.64896C2.30285 9.42165 2.11073 11.3723 2.48506 13.2541C2.85939 15.136 3.78335 16.8646 5.14011 18.2214C6.49687 19.5782 8.22548 20.5021 10.1074 20.8764C11.9892 21.2508 13.9399 21.0587 15.7125 20.3244C17.4852 19.5901 19.0004 18.3467 20.0664 16.7513C21.1324 15.1559 21.7014 13.2803 21.7014 11.3615C21.7014 8.78855 20.6792 6.32097 18.8599 4.50162C17.0405 2.68226 14.573 1.66016 12 1.66016ZM10.6141 15.2351L7.14932 11.7704L8.25112 10.6686L10.6141 13.0315L15.7489 7.89674L16.8548 8.99576L10.6141 15.2351Z" fill="white"/>
</svg>
