<svg width="25" height="25" viewBox="0 0 25 25" fill="none" xmlns="http://www.w3.org/2000/svg">
<path d="M21.9468 2.41427L22.5206 2.98808C23.3113 3.77975 23.1917 5.18317 22.2512 6.12267L10.418 17.9559L6.58417 19.3583C6.10275 19.5353 5.63397 19.3058 5.53866 18.8477C5.50645 18.6816 5.52162 18.5097 5.58243 18.3517L7.0121 14.4848L18.8122 2.68367C19.7527 1.74417 21.1561 1.6226 21.9468 2.41427ZM9.90159 3.59108C10.0293 3.59108 10.1558 3.61623 10.2738 3.66511C10.3918 3.71398 10.499 3.78562 10.5893 3.87593C10.6796 3.96625 10.7513 4.07346 10.8001 4.19146C10.849 4.30945 10.8742 4.43592 10.8742 4.56364C10.8742 4.69136 10.849 4.81783 10.8001 4.93583C10.7513 5.05382 10.6796 5.16104 10.5893 5.25135C10.499 5.34166 10.3918 5.4133 10.2738 5.46218C10.1558 5.51105 10.0293 5.53621 9.90159 5.53621H6.01133C5.49545 5.53621 5.0007 5.74114 4.63591 6.10593C4.27113 6.47071 4.0662 6.96546 4.0662 7.48134V19.1521C4.0662 19.668 4.27113 20.1628 4.63591 20.5276C5.0007 20.8923 5.49545 21.0973 6.01133 21.0973H17.6821C18.198 21.0973 18.6928 20.8923 19.0575 20.5276C19.4223 20.1628 19.6273 19.668 19.6273 19.1521V15.2619C19.6273 15.0039 19.7297 14.7566 19.9121 14.5742C20.0945 14.3918 20.3419 14.2893 20.5998 14.2893C20.8578 14.2893 21.1051 14.3918 21.2875 14.5742C21.4699 14.7566 21.5724 15.0039 21.5724 15.2619V19.1521C21.5724 20.1839 21.1625 21.1734 20.433 21.903C19.7034 22.6325 18.7139 23.0424 17.6821 23.0424H6.01133C4.97957 23.0424 3.99006 22.6325 3.2605 21.903C2.53093 21.1734 2.12106 20.1839 2.12106 19.1521V7.48134C2.12106 6.44958 2.53093 5.46007 3.2605 4.73051C3.99006 4.00094 4.97957 3.59108 6.01133 3.59108H9.90159Z" fill="white"/>
</svg>
