<svg width="8" height="8" viewBox="0 0 8 8" fill="none" xmlns="http://www.w3.org/2000/svg">
<path d="M7.6569 0.948708C7.86149 0.744123 7.86149 0.412425 7.6569 0.20784C7.45232 0.00325489 7.12062 0.00325489 6.91603 0.20784L7.6569 0.948708ZM0.476123 6.86475C0.476123 7.15407 0.71067 7.38862 0.999996 7.38862H5.71485C6.00418 7.38862 6.23872 7.15407 6.23872 6.86475C6.23872 6.57542 6.00418 6.34087 5.71485 6.34087H1.52387V2.14989C1.52387 1.86057 1.28932 1.62602 0.999996 1.62602C0.71067 1.62602 0.476123 1.86057 0.476123 2.14989V6.86475ZM6.91603 0.20784L0.629562 6.49431L1.37043 7.23518L7.6569 0.948708L6.91603 0.20784Z" fill="#CF1A2C"/>
</svg>
