<svg width="26" height="26" viewBox="0 0 26 26" fill="none" xmlns="http://www.w3.org/2000/svg">
<path d="M12.7404 5.77542C15.0783 5.77542 15.3971 5.77542 16.3535 5.77542C17.2037 5.77542 17.6287 5.98796 17.9475 6.09423C18.3726 6.30676 18.6914 6.41303 19.0102 6.73184C19.329 7.05064 19.5416 7.36945 19.6478 7.79452C19.7541 8.11333 19.8604 8.5384 19.9666 9.38855C19.9666 10.345 19.9666 10.5575 19.9666 13.0017C19.9666 15.4458 19.9666 15.6584 19.9666 16.6148C19.9666 17.4649 19.7541 17.89 19.6478 18.2088C19.4353 18.6339 19.329 18.9527 19.0102 19.2715C18.6914 19.5903 18.3726 19.8028 17.9475 19.9091C17.6287 20.0154 17.2037 20.1217 16.3535 20.2279C15.3971 20.2279 15.1846 20.2279 12.7404 20.2279C10.2962 20.2279 10.0837 20.2279 9.12727 20.2279C8.27712 20.2279 7.85205 20.0154 7.53325 19.9091C7.10817 19.6966 6.78937 19.5903 6.47056 19.2715C6.15176 18.9527 5.93922 18.6339 5.83295 18.2088C5.72668 17.89 5.62041 17.4649 5.51415 16.6148C5.51415 15.6584 5.51415 15.4458 5.51415 13.0017C5.51415 10.5575 5.51415 10.345 5.51415 9.38855C5.51415 8.5384 5.72668 8.11333 5.83295 7.79452C6.04549 7.36945 6.15176 7.05064 6.47056 6.73184C6.78937 6.41303 7.10817 6.2005 7.53325 6.09423C7.85205 5.98796 8.27712 5.88169 9.12727 5.77542C10.0837 5.77542 10.4025 5.77542 12.7404 5.77542ZM12.7404 4.1814C10.2962 4.1814 10.0837 4.1814 9.12727 4.1814C8.17086 4.1814 7.53325 4.39393 7.0019 4.60647C6.47056 4.81901 5.93922 5.13781 5.40788 5.66915C4.87654 6.2005 4.664 6.62557 4.34519 7.26318C4.13266 7.79452 4.02639 8.43213 3.92012 9.38855C3.92012 10.345 3.92012 10.6638 3.92012 13.0017C3.92012 15.4458 3.92012 15.6584 3.92012 16.6148C3.92012 17.5712 4.13266 18.2088 4.34519 18.7402C4.55773 19.2715 4.87654 19.8028 5.40788 20.3342C5.93922 20.8655 6.36429 21.0781 7.0019 21.3969C7.53325 21.6094 8.17086 21.7157 9.12727 21.8219C10.0837 21.8219 10.4025 21.8219 12.7404 21.8219C15.0783 21.8219 15.3971 21.8219 16.3535 21.8219C17.3099 21.8219 17.9475 21.6094 18.4789 21.3969C19.0102 21.1843 19.5416 20.8655 20.0729 20.3342C20.6043 19.8028 20.8168 19.3778 21.1356 18.7402C21.3481 18.2088 21.4544 17.5712 21.5607 16.6148C21.5607 15.6584 21.5607 15.3396 21.5607 13.0017C21.5607 10.6638 21.5607 10.345 21.5607 9.38855C21.5607 8.43213 21.3481 7.79452 21.1356 7.26318C20.9231 6.73184 20.6043 6.2005 20.0729 5.66915C19.5416 5.13781 19.1165 4.92528 18.4789 4.60647C17.9475 4.39393 17.3099 4.28766 16.3535 4.1814C15.3971 4.1814 15.1846 4.1814 12.7404 4.1814Z" fill="white"/>
<path d="M12.7404 8.43213C10.19 8.43213 8.17086 10.4512 8.17086 13.0017C8.17086 15.5521 10.19 17.5712 12.7404 17.5712C15.2908 17.5712 17.3099 15.5521 17.3099 13.0017C17.3099 10.4512 15.2908 8.43213 12.7404 8.43213ZM12.7404 15.9772C11.1464 15.9772 9.76488 14.702 9.76488 13.0017C9.76488 11.4076 11.0401 10.0262 12.7404 10.0262C14.3344 10.0262 15.7159 11.3014 15.7159 13.0017C15.7159 14.5957 14.3344 15.9772 12.7404 15.9772Z" fill="white"/>
<path d="M17.4162 9.38855C18.0031 9.38855 18.4789 8.91277 18.4789 8.32586C18.4789 7.73896 18.0031 7.26318 17.4162 7.26318C16.8293 7.26318 16.3535 7.73896 16.3535 8.32586C16.3535 8.91277 16.8293 9.38855 17.4162 9.38855Z" fill="white"/>
</svg>
