<svg width="12" height="12" viewBox="0 0 12 12" fill="none" xmlns="http://www.w3.org/2000/svg">
<path d="M8.24723 1.79492C7.27985 1.79492 6.45323 2.48446 5.99908 2.95985C5.54492 2.48446 4.72015 1.79492 3.75323 1.79492C2.08661 1.79492 0.923077 2.95661 0.923077 4.61954C0.923077 6.45185 2.36815 7.63615 3.76615 8.78169C4.42615 9.32308 5.10923 9.88246 5.63308 10.5028C5.72123 10.6066 5.85046 10.6666 5.98615 10.6666H6.01292C6.14908 10.6666 6.27785 10.6062 6.36554 10.5028C6.89031 9.88246 7.57292 9.32261 8.23338 8.78169C9.63092 7.63661 11.0769 6.45231 11.0769 4.61954C11.0769 2.95661 9.91338 1.79492 8.24723 1.79492Z" fill="#E34848"/>
</svg>
