<svg width="14" height="14" viewBox="0 0 14 14" fill="none" xmlns="http://www.w3.org/2000/svg">
<path d="M7 2.33325C7.61884 2.33325 8.21233 2.57908 8.64992 3.01667C9.0875 3.45425 9.33333 4.04775 9.33333 4.66659C9.33333 5.28542 9.0875 5.87892 8.64992 6.3165C8.21233 6.75409 7.61884 6.99992 7 6.99992C6.38116 6.99992 5.78767 6.75409 5.35008 6.3165C4.9125 5.87892 4.66667 5.28542 4.66667 4.66659C4.66667 4.04775 4.9125 3.45425 5.35008 3.01667C5.78767 2.57908 6.38116 2.33325 7 2.33325ZM7 8.16658C9.57833 8.16658 11.6667 9.21075 11.6667 10.4999V11.6666H2.33333V10.4999C2.33333 9.21075 4.42167 8.16658 7 8.16658Z" fill="white"/>
</svg>
