<svg width="26" height="26" viewBox="0 0 26 26" fill="none" xmlns="http://www.w3.org/2000/svg">
<path fill-rule="evenodd" clip-rule="evenodd" d="M5 6.01355C5 6.02097 6.35639 7.74021 8.01421 9.83403C9.672 11.9279 11.0215 13.657 11.0131 13.6766C11.0046 13.6961 9.7365 15.1039 8.19495 16.805C6.65343 18.5061 5.37277 19.9208 5.34911 19.9489C5.30886 19.9967 5.38623 20 6.53315 20H7.76025L9.96446 17.5626C11.1768 16.2221 12.1762 15.1243 12.1853 15.1232C12.1946 15.1221 13.0699 16.2185 14.1304 17.5597L16.0588 19.9982L18.5294 19.9991C19.8883 19.9996 21 19.9937 21 19.986C21 19.9783 19.5819 18.1612 17.8487 15.9481L14.6973 11.9242L14.7854 11.8333C14.8339 11.7833 16.014 10.4811 17.408 8.93939C18.802 7.39773 19.9712 6.1057 20.0062 6.06818L20.0698 6L18.8329 6.00197L17.5961 6.00394L15.5882 8.22794C14.4839 9.45115 13.5732 10.4525 13.5645 10.4532C13.5557 10.454 12.7651 9.45276 11.8076 8.22836L10.0667 6.00218L7.53333 6.00109C6.13998 6.00048 5 6.00609 5 6.01355ZM7.87686 7.37306C7.89067 7.39491 9.89136 9.92445 12.3229 12.9943L16.7438 18.5758H17.4157C17.8146 18.5758 18.0833 18.5644 18.0771 18.5477C18.0714 18.5322 16.0973 16.0033 13.6902 12.9277L9.31373 7.33582L8.58275 7.33458C7.9878 7.33358 7.85644 7.34073 7.87686 7.37306Z" fill="white"/>
</svg>
