<svg width="8" height="8" viewBox="0 0 8 8" fill="none" xmlns="http://www.w3.org/2000/svg">
<path d="M0.629566 6.49441C0.424981 6.69899 0.424981 7.03069 0.629566 7.23528C0.834151 7.43986 1.16585 7.43986 1.37043 7.23528L0.629566 6.49441ZM7.81035 0.578369C7.81035 0.289042 7.5758 0.0544965 7.28647 0.0544965H2.57162C2.28229 0.0544965 2.04775 0.289042 2.04775 0.578369C2.04775 0.867696 2.28229 1.10224 2.57162 1.10224H6.7626V5.29322C6.7626 5.58255 6.99715 5.8171 7.28647 5.8171C7.5758 5.8171 7.81035 5.58255 7.81035 5.29322V0.578369ZM1.37043 7.23528L7.65691 0.948803L6.91604 0.207935L0.629566 6.49441L1.37043 7.23528Z" fill="#05AB6F"/>
</svg>
