<svg width="27" height="28" viewBox="0 0 27 28" fill="none" xmlns="http://www.w3.org/2000/svg">
<circle cx="13.2353" cy="14.2647" r="6.88235" fill="white"/>
<path d="M9.675 25.8125L7.5375 22.2125L3.4875 21.3125L3.88125 17.15L1.125 14L3.88125 10.85L3.4875 6.6875L7.5375 5.7875L9.675 2.1875L13.5 3.81875L17.325 2.1875L19.4625 5.7875L23.5125 6.6875L23.1187 10.85L25.875 14L23.1187 17.15L23.5125 21.3125L19.4625 22.2125L17.325 25.8125L13.5 24.1812L9.675 25.8125ZM12.3187 17.9938L18.675 11.6375L17.1 10.0062L12.3187 14.7875L9.9 12.425L8.325 14L12.3187 17.9938Z" fill="#22A4F6"/>
</svg>
