<svg width="19" height="19" viewBox="0 0 19 19" fill="none" xmlns="http://www.w3.org/2000/svg">
<g opacity="0.5">
<path d="M9.08883 3.0835C9.88517 3.0835 10.6489 3.39984 11.212 3.96294C11.7751 4.52604 12.0914 5.28976 12.0914 6.0861C12.0914 6.88244 11.7751 7.64617 11.212 8.20927C10.6489 8.77237 9.88517 9.08871 9.08883 9.08871C8.29249 9.08871 7.52877 8.77237 6.96567 8.20927C6.40257 7.64617 6.08623 6.88244 6.08623 6.0861C6.08623 5.28976 6.40257 4.52604 6.96567 3.96294C7.52877 3.39984 8.29249 3.0835 9.08883 3.0835ZM9.08883 10.59C12.4067 10.59 15.094 11.9337 15.094 13.5926V15.0939H3.08362V13.5926C3.08362 11.9337 5.77095 10.59 9.08883 10.59Z" fill="white"/>
</g>
</svg>
