<svg width="39" height="39" viewBox="0 0 39 39" fill="none" xmlns="http://www.w3.org/2000/svg">
<rect width="38.8199" height="38.8199" rx="19.41" fill="#1E1E1E"/>
<path d="M19.4263 26.3086C17.5419 26.3086 15.6576 26.0093 13.8702 25.4109C13.1909 25.1763 12.6733 24.6992 12.4468 24.0764C12.2123 23.4537 12.2932 22.7663 12.6652 22.1516L13.5953 20.6069C13.7894 20.2834 13.9673 19.6364 13.9673 19.2563V16.919C13.9673 13.9105 16.4178 11.46 19.4263 11.46C22.4349 11.46 24.8854 13.9105 24.8854 16.919V19.2563C24.8854 19.6283 25.0633 20.2834 25.2574 20.615L26.1794 22.1516C26.5271 22.7339 26.5918 23.4375 26.3573 24.0764C26.1228 24.7154 25.6133 25.2006 24.9743 25.4109C23.1951 26.0093 21.3107 26.3086 19.4263 26.3086ZM19.4263 12.6731C17.0891 12.6731 15.1804 14.5736 15.1804 16.919V19.2563C15.1804 19.8467 14.9378 20.7201 14.6385 21.2296L13.7085 22.7744C13.5306 23.0736 13.482 23.389 13.5872 23.6559C13.6842 23.9309 13.9268 24.1411 14.2584 24.2544C17.639 25.3866 21.2218 25.3866 24.6023 24.2544C24.8935 24.1573 25.1199 23.939 25.2251 23.6478C25.3302 23.3567 25.3059 23.0412 25.1442 22.7744L24.2141 21.2296C23.9068 20.704 23.6723 19.8386 23.6723 19.2482V16.919C23.6723 14.5736 21.7717 12.6731 19.4263 12.6731Z" fill="#898989"/>
<path d="M20.9307 12.8913C20.874 12.8913 20.8174 12.8832 20.7608 12.8671C20.5263 12.8024 20.2998 12.7538 20.0815 12.7215C19.394 12.6325 18.7309 12.6811 18.1081 12.8671C17.8817 12.9399 17.639 12.8671 17.4854 12.6972C17.3317 12.5274 17.2832 12.2848 17.3722 12.0664C17.7037 11.2172 18.5125 10.6592 19.4345 10.6592C20.3564 10.6592 21.1652 11.2091 21.4968 12.0664C21.5776 12.2848 21.5372 12.5274 21.3835 12.6972C21.2622 12.8266 21.0924 12.8913 20.9307 12.8913Z" fill="#898989"/>
<path d="M19.4264 28.1524C18.6257 28.1524 17.8493 27.8289 17.2832 27.2628C16.7171 26.6967 16.3936 25.9203 16.3936 25.1196H17.6067C17.6067 25.5968 17.8008 26.0659 18.1405 26.4055C18.4801 26.7452 18.9492 26.9393 19.4264 26.9393C20.4292 26.9393 21.246 26.1225 21.246 25.1196H22.4592C22.4592 26.7937 21.1005 28.1524 19.4264 28.1524Z" fill="#898989"/>
<circle cx="24.2625" cy="13.5871" r="4.36724" fill="#00B85E" stroke="#1E1E1E" stroke-width="0.970498"/>
</svg>
