<svg width="21" height="21" viewBox="0 0 21 21" fill="none" xmlns="http://www.w3.org/2000/svg">
<path d="M14.3665 3.50993V2.24829C14.3665 1.9167 14.0915 1.64172 13.7599 1.64172C13.4283 1.64172 13.1534 1.9167 13.1534 2.24829V3.46141L7.89649 3.46141V2.24829C7.89649 1.9167 7.62151 1.64172 7.28993 1.64172C6.95834 1.64172 6.68336 1.9167 6.68336 2.24829V3.50993C4.49974 3.71212 3.44028 5.01421 3.27853 6.94711C3.26236 7.18165 3.45646 7.37575 3.68291 7.37575L17.3669 7.37575C17.6015 7.37575 17.7956 7.17356 17.7713 6.94711C17.6096 5.01421 16.5501 3.71212 14.3665 3.50993Z" fill="#898989"/>
<path d="M16.9949 8.58887L4.05496 8.58887C3.61015 8.58887 3.24622 8.9528 3.24622 9.39762L3.24622 14.3795C3.24622 16.8058 4.45934 18.4233 7.28996 18.4233H13.7599C16.5906 18.4233 17.8037 16.8058 17.8037 14.3795V9.39762C17.8037 8.9528 17.4398 8.58887 16.9949 8.58887ZM8.26855 15.3581C8.22811 15.3904 8.18767 15.4309 8.14723 15.4551C8.09871 15.4875 8.05018 15.5118 8.00166 15.5279C7.95313 15.5522 7.90461 15.5684 7.85608 15.5765C7.79947 15.5845 7.75095 15.5926 7.69433 15.5926C7.5892 15.5926 7.48406 15.5684 7.38701 15.5279C7.28187 15.4875 7.201 15.4309 7.12012 15.3581C6.97455 15.2044 6.88558 14.9942 6.88558 14.7839C6.88558 14.5736 6.97455 14.3633 7.12012 14.2097C7.201 14.1369 7.28187 14.0803 7.38701 14.0398C7.53258 13.9751 7.69433 13.959 7.85608 13.9913C7.90461 13.9994 7.95313 14.0156 8.00166 14.0398C8.05018 14.056 8.09871 14.0803 8.14723 14.1126C8.18767 14.145 8.22811 14.1773 8.26855 14.2097C8.41412 14.3633 8.50308 14.5736 8.50308 14.7839C8.50308 14.9942 8.41412 15.2044 8.26855 15.3581ZM8.26855 12.5275C8.11488 12.673 7.90461 12.762 7.69433 12.762C7.48406 12.762 7.27378 12.673 7.12012 12.5275C6.97455 12.3738 6.88558 12.1635 6.88558 11.9533C6.88558 11.743 6.97455 11.5327 7.12012 11.3791C7.34657 11.1526 7.70242 11.0798 8.00166 11.2092C8.1068 11.2497 8.19576 11.3063 8.26855 11.3791C8.41412 11.5327 8.50308 11.743 8.50308 11.9533C8.50308 12.1635 8.41412 12.3738 8.26855 12.5275ZM11.0992 15.3581C10.9455 15.5037 10.7352 15.5926 10.525 15.5926C10.3147 15.5926 10.1044 15.5037 9.95074 15.3581C9.80517 15.2044 9.71621 14.9942 9.71621 14.7839C9.71621 14.5736 9.80517 14.3633 9.95074 14.2097C10.25 13.9104 10.7999 13.9104 11.0992 14.2097C11.2447 14.3633 11.3337 14.5736 11.3337 14.7839C11.3337 14.9942 11.2447 15.2044 11.0992 15.3581ZM11.0992 12.5275C11.0587 12.5598 11.0183 12.5922 10.9779 12.6245C10.9293 12.6569 10.8808 12.6811 10.8323 12.6973C10.7838 12.7216 10.7352 12.7377 10.6867 12.7458C10.6301 12.7539 10.5816 12.762 10.525 12.762C10.3147 12.762 10.1044 12.673 9.95074 12.5275C9.80517 12.3738 9.71621 12.1635 9.71621 11.9533C9.71621 11.743 9.80517 11.5327 9.95074 11.3791C10.0235 11.3063 10.1125 11.2497 10.2176 11.2092C10.5169 11.0798 10.8727 11.1526 11.0992 11.3791C11.2447 11.5327 11.3337 11.743 11.3337 11.9533C11.3337 12.1635 11.2447 12.3738 11.0992 12.5275ZM13.9298 15.3581C13.7761 15.5037 13.5658 15.5926 13.3556 15.5926C13.1453 15.5926 12.935 15.5037 12.7814 15.3581C12.6358 15.2044 12.5468 14.9942 12.5468 14.7839C12.5468 14.5736 12.6358 14.3633 12.7814 14.2097C13.0806 13.9104 13.6305 13.9104 13.9298 14.2097C14.0754 14.3633 14.1643 14.5736 14.1643 14.7839C14.1643 14.9942 14.0754 15.2044 13.9298 15.3581ZM13.9298 12.5275C13.8893 12.5598 13.8489 12.5922 13.8085 12.6245C13.7599 12.6569 13.7114 12.6811 13.6629 12.6973C13.6144 12.7216 13.5658 12.7377 13.5173 12.7458C13.4607 12.7539 13.4041 12.762 13.3556 12.762C13.1453 12.762 12.935 12.673 12.7814 12.5275C12.6358 12.3738 12.5468 12.1635 12.5468 11.9533C12.5468 11.743 12.6358 11.5327 12.7814 11.3791C12.8622 11.3063 12.9431 11.2497 13.0482 11.2092C13.1938 11.1445 13.3556 11.1283 13.5173 11.1607C13.5658 11.1688 13.6144 11.185 13.6629 11.2092C13.7114 11.2254 13.7599 11.2497 13.8085 11.282C13.8489 11.3144 13.8893 11.3467 13.9298 11.3791C14.0754 11.5327 14.1643 11.743 14.1643 11.9533C14.1643 12.1635 14.0754 12.3738 13.9298 12.5275Z" fill="#898989"/>
</svg>
