<svg width="21" height="21" viewBox="0 0 21 21" fill="none" xmlns="http://www.w3.org/2000/svg">
<path d="M6.67528 2.37244L5.13866 2.37244C3.3675 2.37244 2.43744 3.3025 2.43744 5.06557L2.43744 6.60219C2.43744 8.36526 3.3675 9.29533 5.13057 9.29533H6.66719C8.43027 9.29533 9.36033 8.36526 9.36033 6.60219V5.06557C9.36842 3.3025 8.43835 2.37244 6.67528 2.37244Z" fill="white"/>
<path d="M15.9193 2.37244L14.3826 2.37244C12.6196 2.37244 11.6895 3.3025 11.6895 5.06557V6.60219C11.6895 8.36526 12.6196 9.29533 14.3826 9.29533H15.9193C17.6823 9.29533 18.6124 8.36526 18.6124 6.60219V5.06557C18.6124 3.3025 17.6823 2.37244 15.9193 2.37244Z" fill="white"/>
<path d="M15.9193 11.6165H14.3826C12.6196 11.6165 11.6895 12.5465 11.6895 14.3096V15.8462C11.6895 17.6093 12.6196 18.5393 14.3826 18.5393H15.9193C17.6823 18.5393 18.6124 17.6093 18.6124 15.8462V14.3096C18.6124 12.5465 17.6823 11.6165 15.9193 11.6165Z" fill="white"/>
<path d="M6.67528 11.6165H5.13866C3.3675 11.6165 2.43744 12.5465 2.43744 14.3096L2.43744 15.8462C2.43744 17.6174 3.3675 18.5474 5.13057 18.5474H6.66719C8.43027 18.5474 9.36033 17.6174 9.36033 15.8543V14.3177C9.36842 12.5465 8.43835 11.6165 6.67528 11.6165Z" fill="white"/>
</svg>
