<svg width="21" height="21" viewBox="0 0 21 21" fill="none" xmlns="http://www.w3.org/2000/svg">
<path d="M14.5687 2.3103L6.48118 2.3103C4.24904 2.3103 2.43744 4.11381 2.43744 6.33787L2.43744 11.1742L2.43744 11.9829C2.43744 14.207 4.24904 16.0105 6.48118 16.0105H7.69431C7.91267 16.0105 8.20382 16.1561 8.3413 16.334L9.55443 17.9434C10.0882 18.6551 10.9616 18.6551 11.4954 17.9434L12.7085 16.334C12.8622 16.1318 13.1048 16.0105 13.3555 16.0105H14.5687C16.8008 16.0105 18.6124 14.207 18.6124 11.9829V6.33787C18.6124 4.11381 16.8008 2.3103 14.5687 2.3103ZM11.3337 11.8131L6.48118 11.8131C6.1496 11.8131 5.87462 11.5381 5.87462 11.2065C5.87462 10.875 6.1496 10.6 6.48118 10.6L11.3337 10.6C11.6653 10.6 11.9402 10.875 11.9402 11.2065C11.9402 11.5381 11.6653 11.8131 11.3337 11.8131ZM14.5687 7.76936L6.48118 7.76936C6.1496 7.76936 5.87462 7.49438 5.87462 7.1628C5.87462 6.83121 6.1496 6.55623 6.48118 6.55623L14.5687 6.55623C14.9003 6.55623 15.1752 6.83121 15.1752 7.1628C15.1752 7.49438 14.9003 7.76936 14.5687 7.76936Z" fill="#898989"/>
</svg>
