<svg width="29" height="20" viewBox="0 0 29 20" fill="none" xmlns="http://www.w3.org/2000/svg">
<rect x="0.934875" y="0.986328" width="27.528" height="18.823" rx="9.4115" fill="#00B85E"/>
<path d="M10.194 14.8977L10.194 7.12595H9.20357L9.50006 6.06617H11.2538L11.2538 14.8977H10.194ZM16.0383 15.0617C15.5126 15.0617 15.0416 14.944 14.6252 14.7085C14.2089 14.4687 13.8514 14.1386 13.5528 13.7181C13.2542 13.2975 13.0271 12.8118 12.8715 12.2609C12.7159 11.7057 12.6381 11.1128 12.6381 10.4819C12.6381 9.85111 12.7159 9.25814 12.8715 8.70301C13.0271 8.14789 13.2542 7.66215 13.5528 7.24581C13.8514 6.82526 14.2089 6.49723 14.6252 6.26173C15.0416 6.02201 15.5126 5.90216 16.0383 5.90216C16.5597 5.90216 17.0286 6.02201 17.445 6.26173C17.8655 6.49723 18.2209 6.82526 18.5111 7.24581C18.8055 7.66215 19.0305 8.14789 19.1861 8.70301C19.3459 9.25814 19.4258 9.85111 19.4258 10.4819C19.4258 11.1128 19.3459 11.7057 19.1861 12.2609C19.0305 12.8118 18.8055 13.2975 18.5111 13.7181C18.2209 14.1386 17.8655 14.4687 17.445 14.7085C17.0286 14.944 16.5597 15.0617 16.0383 15.0617ZM16.0383 14.0019C16.5639 14.0019 17.0034 13.84 17.3567 13.5162C17.7141 13.1882 17.9812 12.7571 18.1578 12.223C18.3345 11.6889 18.4228 11.1086 18.4228 10.4819C18.4228 9.82168 18.3302 9.2266 18.1452 8.69671C17.9644 8.16261 17.6952 7.73996 17.3378 7.42875C16.9845 7.11754 16.5513 6.96194 16.0383 6.96194C15.6345 6.96194 15.2813 7.05656 14.9785 7.24581C14.6799 7.43506 14.4318 7.6937 14.2341 8.02172C14.0364 8.34975 13.8871 8.72614 13.7862 9.1509C13.6895 9.57145 13.6411 10.0151 13.6411 10.4819C13.6411 11.1086 13.7315 11.691 13.9124 12.2293C14.0932 12.7634 14.3603 13.1924 14.7135 13.5162C15.071 13.84 15.5126 14.0019 16.0383 14.0019Z" fill="black"/>
</svg>
